<svg width="108" height="108" viewBox="0 0 108 108" fill="none" xmlns="http://www.w3.org/2000/svg">
<rect x="13" y="53.2653" width="43" height="40" rx="5" stroke="white" stroke-width="2"/>
<path d="M12 58.2653C12 54.9516 14.6863 52.2653 18 52.2653H51C54.3137 52.2653 57 54.9516 57 58.2653V62.2653H12V58.2653Z" fill="white"/>
<circle cx="20.5" cy="69.7653" r="3.5" fill="#3CDB83"/>
<circle cx="34.5" cy="69.7653" r="3.5" fill="white"/>
<circle cx="48.5" cy="69.7653" r="3.5" fill="white"/>
<circle cx="20.5" cy="82.7653" r="3.5" fill="#1C1C1C"/>
<circle cx="34.5" cy="82.7653" r="3.5" fill="white"/>
<circle cx="48.5" cy="82.7653" r="3.5" fill="#FFEB3B"/>
<path d="M21 71.2653C25.8981 69.8701 28.7134 68.606 31.5 68.1837M44 68.1837C38.9695 68.1837 35.5405 67.5714 31.5 68.1837M31.5 68.1837C35 67.914 21 68.1837 21 68.1837" stroke="#3CDB83" stroke-width="4" stroke-linejoin="round"/>
<path d="M44 68.1837C37.0294 68.7315 32.7845 70.4169 29.5 72.9191M19.5 81.7653C22.5104 78.0721 26.2155 75.4214 29.5 72.9191M29.5 72.9191C24.4515 76.7653 21.5 83.7653 21.5 83.7653" stroke="#1C1C1C" stroke-width="4" stroke-linejoin="round"/>
<path d="M50 81.7653C46.2586 80.5182 43.8531 77.553 43.3277 74.2653M44.5516 68.2653C43.3786 70.1782 43.0105 72.2805 43.3277 74.2653M43.3277 74.2653C43.9753 78.1758 45.3133 80.2464 47.5 83.7653" stroke="#FFEB3B" stroke-width="4" stroke-linejoin="round"/>
<path d="M44 68.1837C134 68.1837 88.5544 121.145 53 61.7653C19.4691 5.76532 106.021 -11.5316 44 68.1837Z" stroke="#F20F00" stroke-width="4" stroke-linejoin="round"/>
</svg>
